<svg data-v-d3f97b9e="" xmlns="http://www.w3.org/2000/svg" viewBox="0 0 541 90"><!----><!----><!----><g data-v-d3f97b9e="" id="67d389c9-e38d-436c-8aa5-62adb2cd2623" fill="black" transform="matrix(5.439710013831304,0,0,5.439710013831304,119.77520676188979,-0.17679120791802916)"><path d="M0.84 12.35L0.71 12.19L0.71 12.19Q0.35 11.75 0.35 11.39L0.35 11.39L0.35 11.39Q0.35 11.03 0.95 10.44L0.95 10.44L0.95 10.44Q1.30 10.11 1.69 10.11L1.69 10.11L1.69 10.11Q2.09 10.11 2.79 10.81L2.79 10.81L2.79 10.81Q2.98 11.05 3.35 11.26L3.35 11.26L3.35 11.26Q3.71 11.48 4.02 11.48L4.02 11.48L4.02 11.48Q5.32 11.48 5.32 10.42L5.32 10.42L5.32 10.42Q5.32 10.09 4.96 9.88L4.96 9.88L4.96 9.88Q4.61 9.66 4.07 9.56L4.07 9.56L4.07 9.56Q3.54 9.46 2.93 9.25L2.93 9.25L2.93 9.25Q2.31 9.03 1.78 8.74L1.78 8.74L1.78 8.74Q1.25 8.44 0.89 7.81L0.89 7.81L0.89 7.81Q0.53 7.17 0.53 6.27L0.53 6.27L0.53 6.27Q0.53 5.04 1.45 4.12L1.45 4.12L1.45 4.12Q2.37 3.21 3.95 3.21L3.95 3.21L3.95 3.21Q4.79 3.21 5.48 3.42L5.48 3.42L5.48 3.42Q6.17 3.64 6.44 3.86L6.44 3.86L6.79 4.13L6.79 4.13Q7.22 4.54 7.22 4.82L7.22 4.82L7.22 4.82Q7.22 5.10 6.89 5.59L6.89 5.59L6.89 5.59Q6.41 6.29 5.91 6.29L5.91 6.29L5.91 6.29Q5.61 6.29 5.18 6.01L5.18 6.01L5.18 6.01Q5.14 5.98 5.02 5.87L5.02 5.87L5.02 5.87Q4.90 5.75 4.80 5.68L4.80 5.68L4.80 5.68Q4.51 5.50 4.05 5.50L4.05 5.50L4.05 5.50Q3.60 5.50 3.30 5.72L3.30 5.72L3.30 5.72Q3.00 5.94 3.00 6.32L3.00 6.32L3.00 6.32Q3.00 6.71 3.35 6.94L3.35 6.94L3.35 6.94Q3.71 7.18 4.24 7.27L4.24 7.27L4.24 7.27Q4.77 7.35 5.40 7.53L5.40 7.53L5.40 7.53Q6.03 7.70 6.57 7.95L6.57 7.95L6.57 7.95Q7.10 8.20 7.46 8.83L7.46 8.83L7.46 8.83Q7.81 9.45 7.81 10.36L7.81 10.36L7.81 10.36Q7.81 11.27 7.45 11.96L7.45 11.96L7.45 11.96Q7.08 12.66 6.50 13.03L6.50 13.03L6.50 13.03Q5.36 13.78 4.07 13.78L4.07 13.78L4.07 13.78Q3.42 13.78 2.83 13.62L2.83 13.62L2.83 13.62Q2.24 13.45 1.88 13.22L1.88 13.22L1.88 13.22Q1.13 12.77 0.84 12.35L0.84 12.35ZM15.83 9.07L15.83 9.07L15.83 9.07Q15.83 9.93 15.41 10.34L15.41 10.34L15.41 10.34Q14.98 10.75 14.46 10.75L14.46 10.75L11.14 10.75L11.14 10.75Q11.14 11.14 11.61 11.41L11.61 11.41L11.61 11.41Q12.07 11.68 12.53 11.68L12.53 11.68L12.53 11.68Q13.34 11.68 13.80 11.51L13.80 11.51L13.96 11.45L13.96 11.45Q14.29 11.30 14.52 11.30L14.52 11.30L14.52 11.30Q14.97 11.30 15.29 11.93L15.29 11.93L15.29 11.93Q15.47 12.31 15.47 12.57L15.47 12.57L15.47 12.57Q15.47 13.82 12.49 13.82L12.49 13.82L12.49 13.82Q11.45 13.82 10.65 13.46L10.65 13.46L10.65 13.46Q9.84 13.10 9.39 12.52L9.39 12.52L9.39 12.52Q8.51 11.38 8.51 9.98L8.51 9.98L8.51 9.98Q8.51 8.22 9.65 7.16L9.65 7.16L9.65 7.16Q10.79 6.10 12.50 6.10L12.50 6.10L12.50 6.10Q14.45 6.10 15.36 7.48L15.36 7.48L15.36 7.48Q15.83 8.20 15.83 9.07ZM11.12 9.48L12.88 9.48L12.88 9.48Q13.41 9.48 13.41 9.03L13.41 9.03L13.41 9.03Q13.41 8.71 13.17 8.51L13.17 8.51L13.17 8.51Q12.92 8.32 12.47 8.32L12.47 8.32L12.47 8.32Q12.01 8.32 11.56 8.69L11.56 8.69L11.56 8.69Q11.12 9.06 11.12 9.48L11.12 9.48ZM16.74 10.68L16.74 4.02L16.74 4.02Q16.74 3.70 16.77 3.54L16.77 3.54L16.77 3.54Q16.79 3.37 16.88 3.16L16.88 3.16L16.88 3.16Q17.08 2.79 17.98 2.79L17.98 2.79L17.98 2.79Q18.83 2.79 19.04 3.16L19.04 3.16L19.04 3.16Q19.15 3.37 19.17 3.54L19.17 3.54L19.17 3.54Q19.19 3.71 19.19 4.03L19.19 4.03L19.19 10.51L19.19 10.51Q19.19 11.02 19.28 11.15L19.28 11.15L19.28 11.15Q19.36 11.28 19.65 11.28L19.65 11.28L19.65 11.28Q19.94 11.28 20.03 11.31L20.03 11.31L20.03 11.31Q20.13 11.33 20.27 11.42L20.27 11.42L20.27 11.42Q20.55 11.61 20.55 12.42L20.55 12.42L20.55 12.42Q20.55 13.30 20.27 13.50L20.27 13.50L20.27 13.50Q19.91 13.75 18.54 13.58L18.54 13.58L18.54 13.58Q17.46 13.44 17.14 12.87L17.14 12.87L17.14 12.87Q16.74 12.18 16.74 10.68L16.74 10.68ZM21.32 10.68L21.32 4.02L21.32 4.02Q21.32 3.70 21.34 3.54L21.34 3.54L21.34 3.54Q21.36 3.37 21.46 3.16L21.46 3.16L21.46 3.16Q21.66 2.79 22.55 2.79L22.55 2.79L22.55 2.79Q23.41 2.79 23.62 3.16L23.62 3.16L23.62 3.16Q23.73 3.37 23.75 3.54L23.75 3.54L23.75 3.54Q23.77 3.71 23.77 4.03L23.77 4.03L23.77 10.51L23.77 10.51Q23.77 11.02 23.86 11.15L23.86 11.15L23.86 11.15Q23.94 11.28 24.23 11.28L24.23 11.28L24.23 11.28Q24.51 11.28 24.61 11.31L24.61 11.31L24.61 11.31Q24.71 11.33 24.85 11.42L24.85 11.42L24.85 11.42Q25.13 11.61 25.13 12.42L25.13 12.42L25.13 12.42Q25.13 13.30 24.85 13.50L24.85 13.50L24.85 13.50Q24.49 13.75 23.11 13.58L23.11 13.58L23.11 13.58Q22.04 13.44 21.71 12.87L21.71 12.87L21.71 12.87Q21.32 12.18 21.32 10.68L21.32 10.68ZM38.18 3.43L38.18 3.43L38.18 3.43Q39.12 3.77 39.12 4.33L39.12 4.33L39.12 4.33Q39.12 4.51 38.95 5.01L38.95 5.01L36.26 12.78L36.26 12.78Q36.23 12.88 36.16 13.02L36.16 13.02L36.16 13.02Q36.09 13.16 35.79 13.39L35.79 13.39L35.79 13.39Q35.49 13.62 35.08 13.62L35.08 13.62L35.08 13.62Q34.66 13.62 34.36 13.39L34.36 13.39L34.36 13.39Q34.06 13.16 33.96 12.94L33.96 12.94L32.33 8.11L32.33 8.11Q30.77 12.70 30.74 12.78L30.74 12.78L30.74 12.78Q30.72 12.87 30.62 13.02L30.62 13.02L30.62 13.02Q30.52 13.17 30.39 13.30L30.39 13.30L30.39 13.30Q30.07 13.62 29.62 13.62L29.62 13.62L29.62 13.62Q29.18 13.62 28.89 13.41L28.89 13.41L28.89 13.41Q28.60 13.20 28.50 12.99L28.50 12.99L28.41 12.78L25.70 5.01L25.70 5.01Q25.55 4.55 25.55 4.33L25.55 4.33L25.55 4.33Q25.55 3.77 26.49 3.44L26.49 3.44L26.49 3.44Q26.89 3.30 27.22 3.30L27.22 3.30L27.22 3.30Q27.55 3.30 27.73 3.53L27.73 3.53L27.73 3.53Q27.90 3.75 28.04 4.21L28.04 4.21L29.58 8.89L31.11 4.28L31.11 4.28Q31.30 3.70 31.82 3.47L31.82 3.47L31.82 3.47Q32.05 3.37 32.40 3.37L32.40 3.37L32.40 3.37Q32.76 3.37 33.07 3.61L33.07 3.61L33.07 3.61Q33.38 3.84 33.46 4.06L33.46 4.06L35.07 8.92L36.61 4.21L36.61 4.21Q36.72 3.89 36.79 3.74L36.79 3.74L36.79 3.74Q36.86 3.58 37.05 3.44L37.05 3.44L37.05 3.44Q37.24 3.29 37.52 3.29L37.52 3.29L37.52 3.29Q37.80 3.29 38.18 3.43ZM43.69 7.04L43.69 7.04L43.69 7.04Q43.78 6.26 44.80 6.26L44.80 6.26L44.80 6.26Q45.35 6.26 45.61 6.34L45.61 6.34L45.61 6.34Q45.88 6.43 45.98 6.64L45.98 6.64L45.98 6.64Q46.09 6.85 46.11 7.01L46.11 7.01L46.11 7.01Q46.13 7.17 46.13 7.49L46.13 7.49L46.13 12.39L46.13 12.39Q46.13 12.71 46.11 12.87L46.11 12.87L46.11 12.87Q46.09 13.03 45.99 13.24L45.99 13.24L45.99 13.24Q45.79 13.61 45.03 13.61L45.03 13.61L45.03 13.61Q44.27 13.61 44.01 13.42L44.01 13.42L44.01 13.42Q43.75 13.23 43.71 12.87L43.71 12.87L43.71 12.87Q43.19 13.61 41.98 13.61L41.98 13.61L41.98 13.61Q40.77 13.61 39.73 12.50L39.73 12.50L39.73 12.50Q38.70 11.40 38.70 9.93L38.70 9.93L38.70 9.93Q38.70 8.47 39.74 7.37L39.74 7.37L39.74 7.37Q40.78 6.27 42.03 6.27L42.03 6.27L42.03 6.27Q42.50 6.27 42.90 6.44L42.90 6.44L42.90 6.44Q43.29 6.61 43.44 6.76L43.44 6.76L43.44 6.76Q43.60 6.90 43.69 7.04ZM41.15 9.95L41.15 9.95L41.15 9.95Q41.15 10.42 41.51 10.79L41.51 10.79L41.51 10.79Q41.87 11.16 42.39 11.16L42.39 11.16L42.39 11.16Q42.91 11.16 43.25 10.78L43.25 10.78L43.25 10.78Q43.60 10.40 43.60 9.95L43.60 9.95L43.60 9.95Q43.60 9.49 43.27 9.10L43.27 9.10L43.27 9.10Q42.94 8.71 42.39 8.71L42.39 8.71L42.39 8.71Q41.83 8.71 41.49 9.10L41.49 9.10L41.49 9.10Q41.15 9.49 41.15 9.95ZM51.35 6.26L51.35 6.26L51.35 6.26Q52.75 6.26 53.68 7.33L53.68 7.33L53.68 7.33Q54.61 8.40 54.61 9.94L54.61 9.94L54.61 12.40L54.61 12.40Q54.61 12.73 54.59 12.89L54.59 12.89L54.59 12.89Q54.57 13.05 54.47 13.24L54.47 13.24L54.47 13.24Q54.28 13.62 53.38 13.62L53.38 13.62L53.38 13.62Q52.39 13.62 52.23 13.10L52.23 13.10L52.23 13.10Q52.15 12.87 52.15 12.39L52.15 12.39L52.15 9.93L52.15 9.93Q52.15 9.35 51.82 9.03L51.82 9.03L51.82 9.03Q51.49 8.71 50.94 8.71L50.94 8.71L50.94 8.71Q50.39 8.71 50.04 9.04L50.04 9.04L50.04 9.04Q49.70 9.38 49.70 9.93L49.70 9.93L49.70 12.40L49.70 12.40Q49.70 12.73 49.68 12.89L49.68 12.89L49.68 12.89Q49.66 13.05 49.55 13.24L49.55 13.24L49.55 13.24Q49.36 13.62 48.47 13.62L48.47 13.62L48.47 13.62Q47.59 13.62 47.39 13.24L47.39 13.24L47.39 13.24Q47.29 13.03 47.27 12.87L47.27 12.87L47.27 12.87Q47.25 12.71 47.25 12.39L47.25 12.39L47.25 7.43L47.25 7.43Q47.25 7.13 47.27 6.97L47.27 6.97L47.27 6.97Q47.29 6.80 47.40 6.61L47.40 6.61L47.40 6.61Q47.60 6.26 48.48 6.26L48.48 6.26L48.48 6.26Q49.34 6.26 49.53 6.58L49.53 6.58L49.53 6.58Q49.67 6.82 49.67 7.15L49.67 7.15L49.67 7.15Q49.73 7.06 49.92 6.87L49.92 6.87L49.92 6.87Q50.12 6.69 50.30 6.58L50.30 6.58L50.30 6.58Q50.78 6.26 51.35 6.26ZM60.68 3.19L60.68 3.19L60.68 3.19Q60.79 2.98 61.05 2.90L61.05 2.90L61.05 2.90Q61.32 2.81 61.76 2.81L61.76 2.81L61.76 2.81Q62.20 2.81 62.47 2.90L62.47 2.90L62.47 2.90Q62.73 2.98 62.84 3.19L62.84 3.19L62.84 3.19Q62.94 3.40 62.97 3.56L62.97 3.56L62.97 3.56Q62.99 3.72 62.99 4.05L62.99 4.05L62.99 12.40L62.99 12.40Q62.99 12.73 62.97 12.89L62.97 12.89L62.97 12.89Q62.94 13.05 62.83 13.24L62.83 13.24L62.83 13.24Q62.62 13.62 61.65 13.62L61.65 13.62L61.65 13.62Q60.68 13.62 60.56 12.94L60.56 12.94L60.56 12.94Q59.98 13.61 58.93 13.61L58.93 13.61L58.93 13.61Q57.67 13.61 56.63 12.51L56.63 12.51L56.63 12.51Q55.59 11.41 55.59 9.95L55.59 9.95L55.59 9.95Q55.59 8.48 56.64 7.38L56.64 7.38L56.64 7.38Q57.68 6.27 58.93 6.27L58.93 6.27L58.93 6.27Q59.96 6.27 60.54 6.97L60.54 6.97L60.54 4.03L60.54 4.03Q60.54 3.71 60.56 3.55L60.56 3.55L60.56 3.55Q60.58 3.39 60.68 3.19ZM58.41 10.79L58.41 10.79L58.41 10.79Q58.77 11.17 59.29 11.17L59.29 11.17L59.29 11.17Q59.81 11.17 60.15 10.79L60.15 10.79L60.15 10.79Q60.49 10.42 60.49 9.96L60.49 9.96L60.49 9.96Q60.49 9.51 60.17 9.11L60.17 9.11L60.17 9.11Q59.84 8.72 59.28 8.72L59.28 8.72L59.28 8.72Q58.72 8.72 58.38 9.11L58.38 9.11L58.38 9.11Q58.04 9.49 58.04 9.95L58.04 9.95L58.04 9.95Q58.04 10.42 58.41 10.79ZM64.16 12.98L64.16 12.98L64.16 12.98Q63.90 12.81 63.90 12.45L63.90 12.45L63.90 12.45Q63.90 12.08 64.43 11.34L64.43 11.34L64.43 11.34Q64.58 11.10 64.93 11.10L64.93 11.10L64.93 11.10Q65.27 11.10 65.86 11.45L65.86 11.45L65.86 11.45Q66.44 11.79 66.92 11.79L66.92 11.79L66.92 11.79Q67.77 11.79 67.77 11.45L67.77 11.45L67.77 11.45Q67.77 11.19 66.84 11.06L66.84 11.06L66.84 11.06Q65.95 10.93 65.09 10.40L65.09 10.40L65.09 10.40Q64.68 10.15 64.41 9.61L64.41 9.61L64.41 9.61Q64.15 9.07 64.15 8.33L64.15 8.33L64.15 8.33Q64.15 6.12 67.19 6.12L67.19 6.12L67.19 6.12Q68.18 6.12 69.23 6.59L69.23 6.59L69.23 6.59Q69.72 6.82 69.72 7.15L69.72 7.15L69.72 7.15Q69.72 7.49 69.41 7.98L69.41 7.98L69.41 7.98Q69.10 8.47 68.78 8.47L68.78 8.47L68.78 8.47Q68.61 8.47 68.16 8.26L68.16 8.26L68.16 8.26Q67.70 8.05 67.17 8.05L67.17 8.05L67.17 8.05Q66.35 8.05 66.35 8.36L66.35 8.36L66.35 8.36Q66.35 8.78 67.30 8.90L67.30 8.90L67.30 8.90Q68.22 9.00 69.09 9.44L69.09 9.44L69.09 9.44Q69.50 9.63 69.77 10.12L69.77 10.12L69.77 10.12Q70.04 10.60 70.04 11.33L70.04 11.33L70.04 11.33Q70.04 12.05 69.77 12.57L69.77 12.57L69.77 12.57Q69.50 13.08 69.01 13.33L69.01 13.33L69.01 13.33Q68.11 13.76 66.76 13.76L66.76 13.76L66.76 13.76Q65.41 13.76 64.16 12.98ZM75.19 7.57L75.19 8.69L76.33 8.69L76.33 8.69Q76.82 8.69 77.04 8.81L77.04 8.81L77.04 8.81Q77.27 8.93 77.34 9.17L77.34 9.17L77.34 9.17Q77.42 9.41 77.42 9.81L77.42 9.81L77.42 9.81Q77.42 10.21 77.35 10.44L77.35 10.44L77.35 10.44Q77.28 10.68 77.11 10.78L77.11 10.78L77.11 10.78Q76.86 10.91 76.40 10.91L76.40 10.91L75.19 10.91L75.19 12.04L75.19 12.04Q75.19 12.53 75.08 12.75L75.08 12.75L75.08 12.75Q74.96 12.98 74.72 13.06L74.72 13.06L74.72 13.06Q74.48 13.13 74.08 13.13L74.08 13.13L74.08 13.13Q73.68 13.13 73.44 13.06L73.44 13.06L73.44 13.06Q73.21 12.98 73.11 12.80L73.11 12.80L73.11 12.80Q72.98 12.53 72.98 12.03L72.98 12.03L72.98 10.91L71.76 10.91L71.76 10.91Q71.30 10.91 71.09 10.79L71.09 10.79L71.09 10.79Q70.88 10.68 70.81 10.44L70.81 10.44L70.81 10.44Q70.74 10.19 70.74 9.80L70.74 9.80L70.74 9.80Q70.74 9.41 70.82 9.16L70.82 9.16L70.82 9.16Q70.90 8.92 71.09 8.82L71.09 8.82L71.09 8.82Q71.36 8.69 71.86 8.69L71.86 8.69L72.98 8.69L72.98 7.56L72.98 7.56Q72.98 7.07 73.09 6.85L73.09 6.85L73.09 6.85Q73.21 6.62 73.45 6.55L73.45 6.55L73.45 6.55Q73.70 6.47 74.09 6.47L74.09 6.47L74.09 6.47Q74.48 6.47 74.73 6.55L74.73 6.55L74.73 6.55Q74.97 6.62 75.07 6.80L75.07 6.80L75.07 6.80Q75.19 7.07 75.19 7.57L75.19 7.57Z"></path></g><!----><g data-v-d3f97b9e="" id="7680d00c-c0f7-44e4-b2a6-3aea59a7063b" transform="matrix(1.3904338835279657,0,0,1.3904338835279657,-19.328424072303307,-23.885692589484222)" stroke="none" fill="black"><path stroke-width="6" stroke-linecap="round" stroke-linejoin="round" stroke-miterlimit="10" d="M87.186 77.4l-43.65-43.651-5.405 5.405 43.21 43.21zM33.521 23.735l-6.099-6.099-5.404 5.404 5.659 5.66z"></path><path stroke="#000" stroke-width="6" stroke-linecap="round" stroke-linejoin="round" stroke-miterlimit="10" d="M46.326 29.662l-8.974-8.974s-5.588 4.723-8.842 7.833-8.258 7.331-11.632 12.955c-2.828 4.713-5.236 15.709 1.676 23.983 0-9.844 7.563-17.28 7.563-17.28l12.007-11.052 8.202-7.465z"></path></g><!----></svg>